<svg width="243" height="56" viewBox="0 0 243 56" fill="none" xmlns="http://www.w3.org/2000/svg">
<path d="M56.6316 27.9991C56.6316 28.643 56.61 29.2814 56.5668 29.9145C56.5435 29.8965 56.5219 29.8803 56.5075 29.8695C51.8293 26.4974 47.3939 22.7601 42.7822 19.2961C38.149 15.816 34.4654 12.201 28.9958 16.9887C25.7043 19.8717 22.7888 23.2331 19.5549 26.1826C17.6285 28.161 19.7491 31.1573 22.2636 29.9577C22.6071 29.794 23.0406 29.4001 23.3338 29.1411C25.2169 27.4775 27.0335 25.429 28.8717 23.6791C29.816 22.7798 32.4294 20.0713 33.4942 19.7638C34.9367 19.3465 36.3881 20.4274 37.5267 21.1864L55.7053 35.1661C52.5397 47.1586 41.6185 56 28.6307 56C13.2543 56 0.771884 43.6065 0.631592 28.2617C4.68028 31.5152 8.63545 34.8964 12.7039 38.1265C17.5602 41.9825 21.9794 44.9752 27.4418 39.7325C30.1289 36.5798 33.3323 33.7076 36.0176 30.5764C36.9889 29.4451 37.5195 27.9182 36.1777 26.8013C34.4636 25.3733 33.0409 26.7761 31.8682 27.9883C28.9832 30.9738 26.3321 34.2435 23.1935 36.9628C21.143 38.2883 19.6628 37.47 17.9235 36.1913L1.1442 22.6288C3.64967 9.7353 15.0026 0 28.6307 0C43.8362 0 56.2107 12.1183 56.6208 27.2239C56.628 27.4811 56.6316 27.7401 56.6316 27.9991Z" fill="white"/>
<path d="M76.4872 31V8.13557H81.3214V27.0144H91.1236V31H76.4872ZM94.4199 31V13.8517H99.1758V31H94.4199ZM96.809 11.6412C96.1019 11.6412 95.4954 11.4067 94.9892 10.9378C94.4906 10.4615 94.2412 9.89208 94.2412 9.22967C94.2412 8.5747 94.4906 8.01276 94.9892 7.54386C95.4954 7.06752 96.1019 6.82935 96.809 6.82935C97.5161 6.82935 98.119 7.06752 98.6176 7.54386C99.1237 8.01276 99.3768 8.5747 99.3768 9.22967C99.3768 9.89208 99.1237 10.4615 98.6176 10.9378C98.119 11.4067 97.5161 11.6412 96.809 11.6412ZM112.207 13.8517V17.4242H101.624V13.8517H112.207ZM104.046 31V12.6124C104.046 11.3695 104.288 10.3387 104.772 9.51994C105.263 8.70123 105.933 8.08719 106.781 7.67783C107.63 7.26848 108.594 7.0638 109.673 7.0638C110.402 7.0638 111.069 7.11962 111.671 7.23126C112.282 7.34291 112.736 7.44338 113.033 7.5327L112.185 11.1053C111.999 11.0457 111.768 10.9899 111.493 10.9378C111.225 10.8857 110.949 10.8597 110.667 10.8597C109.967 10.8597 109.48 11.0234 109.204 11.3509C108.929 11.6709 108.791 12.1212 108.791 12.7018V31H104.046ZM122.314 31.3349C120.55 31.3349 119.031 30.9777 117.759 30.2632C116.493 29.5412 115.518 28.5215 114.834 27.2041C114.149 25.8793 113.807 24.3126 113.807 22.504C113.807 20.74 114.149 19.1919 114.834 17.8597C115.518 16.5274 116.482 15.4891 117.725 14.7448C118.976 14.0005 120.442 13.6284 122.124 13.6284C123.255 13.6284 124.308 13.8107 125.283 14.1754C126.266 14.5327 127.122 15.0723 127.851 15.7943C128.588 16.5162 129.161 17.4242 129.571 18.5183C129.98 19.605 130.185 20.8777 130.185 22.3365V23.6427H115.705V20.6954H125.708C125.708 20.0106 125.559 19.404 125.261 18.8756C124.963 18.3472 124.55 17.9341 124.022 17.6364C123.501 17.3312 122.894 17.1786 122.202 17.1786C121.48 17.1786 120.84 17.3461 120.282 17.681C119.731 18.0085 119.299 18.4514 118.987 19.0096C118.674 19.5603 118.514 20.1744 118.507 20.8517V23.6539C118.507 24.5024 118.663 25.2355 118.976 25.8533C119.296 26.471 119.746 26.9474 120.327 27.2823C120.907 27.6172 121.596 27.7847 122.392 27.7847C122.92 27.7847 123.404 27.7103 123.843 27.5614C124.282 27.4125 124.658 27.1893 124.971 26.8915C125.283 26.5938 125.522 26.2291 125.685 25.7974L130.084 26.0877C129.861 27.1446 129.403 28.0675 128.711 28.8565C128.026 29.638 127.14 30.2483 126.054 30.6874C124.975 31.1191 123.728 31.3349 122.314 31.3349ZM131.094 12.1212V8.13557H149.873V12.1212H142.873V31H138.094V12.1212H131.094ZM157.816 21.0861V31H153.06V8.13557H157.682V16.8772H157.883C158.27 15.865 158.895 15.0723 159.759 14.4992C160.622 13.9187 161.705 13.6284 163.008 13.6284C164.198 13.6284 165.237 13.8889 166.122 14.4099C167.016 14.9234 167.708 15.664 168.199 16.6316C168.698 17.5917 168.943 18.7416 168.936 20.0813V31H164.18V20.9298C164.187 19.8729 163.919 19.0505 163.376 18.4625C162.84 17.8745 162.088 17.5805 161.121 17.5805C160.473 17.5805 159.9 17.7182 159.402 17.9936C158.91 18.269 158.523 18.6709 158.24 19.1994C157.965 19.7204 157.824 20.3493 157.816 21.0861ZM172.679 31V13.8517H177.289V16.8437H177.468C177.781 15.7794 178.305 14.9755 179.042 14.4322C179.779 13.8814 180.628 13.6061 181.588 13.6061C182.049 13.6061 182.477 13.6619 182.872 13.7735C183.266 13.8852 183.62 14.0377 183.932 14.2313L182.503 18.1611C182.28 18.0494 182.034 17.9564 181.766 17.882C181.506 17.8001 181.212 17.7592 180.884 17.7592C180.244 17.7592 179.664 17.9118 179.143 18.2169C178.622 18.5146 178.209 18.9277 177.903 19.4561C177.598 19.9846 177.442 20.5986 177.435 21.2982V31H172.679ZM192.959 31.3349C191.195 31.3349 189.676 30.9777 188.403 30.2632C187.138 29.5412 186.163 28.5215 185.478 27.2041C184.794 25.8793 184.451 24.3126 184.451 22.504C184.451 20.74 184.794 19.1919 185.478 17.8597C186.163 16.5274 187.127 15.4891 188.37 14.7448C189.62 14.0005 191.087 13.6284 192.769 13.6284C193.9 13.6284 194.953 13.8107 195.928 14.1754C196.911 14.5327 197.767 15.0723 198.496 15.7943C199.233 16.5162 199.806 17.4242 200.215 18.5183C200.625 19.605 200.829 20.8777 200.829 22.3365V23.6427H186.349V20.6954H196.352C196.352 20.0106 196.204 19.404 195.906 18.8756C195.608 18.3472 195.195 17.9341 194.667 17.6364C194.146 17.3312 193.539 17.1786 192.847 17.1786C192.125 17.1786 191.485 17.3461 190.927 17.681C190.376 18.0085 189.944 18.4514 189.632 19.0096C189.319 19.5603 189.159 20.1744 189.152 20.8517V23.6539C189.152 24.5024 189.308 25.2355 189.62 25.8533C189.94 26.471 190.391 26.9474 190.971 27.2823C191.552 27.6172 192.24 27.7847 193.037 27.7847C193.565 27.7847 194.049 27.7103 194.488 27.5614C194.927 27.4125 195.303 27.1893 195.616 26.8915C195.928 26.5938 196.166 26.2291 196.33 25.7974L200.729 26.0877C200.506 27.1446 200.048 28.0675 199.356 28.8565C198.671 29.638 197.785 30.2483 196.699 30.6874C195.619 31.1191 194.373 31.3349 192.959 31.3349ZM210.252 31.2791C208.949 31.2791 207.77 30.9442 206.713 30.2743C205.663 29.597 204.83 28.6034 204.212 27.2935C203.602 25.9761 203.297 24.361 203.297 22.4482C203.297 20.4833 203.613 18.8495 204.246 17.5471C204.878 16.2371 205.719 15.2584 206.769 14.6108C207.826 13.9559 208.983 13.6284 210.241 13.6284C211.201 13.6284 212.001 13.7921 212.641 14.1196C213.289 14.4397 213.81 14.8416 214.204 15.3254C214.606 15.8017 214.911 16.2706 215.12 16.7321H215.265V13.8517H220.01V31H215.321V28.2536H215.12C214.896 28.7299 214.58 29.2026 214.171 29.6715C213.769 30.1329 213.244 30.5162 212.596 30.8214C211.956 31.1265 211.175 31.2791 210.252 31.2791ZM211.759 27.4944C212.526 27.4944 213.173 27.286 213.702 26.8692C214.238 26.445 214.647 25.8533 214.93 25.0941C215.22 24.3349 215.365 23.4455 215.365 22.4258C215.365 21.4062 215.224 20.5205 214.941 19.7687C214.658 19.017 214.249 18.4365 213.713 18.0271C213.177 17.6178 212.526 17.4131 211.759 17.4131C210.978 17.4131 210.319 17.6252 209.783 18.0494C209.247 18.4737 208.842 19.0617 208.566 19.8134C208.291 20.5651 208.153 21.4359 208.153 22.4258C208.153 23.4232 208.291 24.3052 208.566 25.0718C208.849 25.8309 209.255 26.4264 209.783 26.8581C210.319 27.2823 210.978 27.4944 211.759 27.4944ZM230.239 31.2791C228.936 31.2791 227.757 30.9442 226.7 30.2743C225.65 29.597 224.817 28.6034 224.199 27.2935C223.589 25.9761 223.283 24.361 223.283 22.4482C223.283 20.4833 223.6 18.8495 224.232 17.5471C224.865 16.2371 225.706 15.2584 226.756 14.6108C227.812 13.9559 228.97 13.6284 230.228 13.6284C231.188 13.6284 231.988 13.7921 232.628 14.1196C233.275 14.4397 233.796 14.8416 234.191 15.3254C234.593 15.8017 234.898 16.2706 235.106 16.7321H235.252V8.13557H239.996V31H235.307V28.2536H235.106C234.883 28.7299 234.567 29.2026 234.157 29.6715C233.756 30.1329 233.231 30.5162 232.583 30.8214C231.943 31.1265 231.162 31.2791 230.239 31.2791ZM231.746 27.4944C232.513 27.4944 233.16 27.286 233.689 26.8692C234.224 26.445 234.634 25.8533 234.917 25.0941C235.207 24.3349 235.352 23.4455 235.352 22.4258C235.352 21.4062 235.211 20.5205 234.928 19.7687C234.645 19.017 234.236 18.4365 233.7 18.0271C233.164 17.6178 232.513 17.4131 231.746 17.4131C230.964 17.4131 230.306 17.6252 229.77 18.0494C229.234 18.4737 228.828 19.0617 228.553 19.8134C228.278 20.5651 228.14 21.4359 228.14 22.4258C228.14 23.4232 228.278 24.3052 228.553 25.0718C228.836 25.8309 229.241 26.4264 229.77 26.8581C230.306 27.2823 230.964 27.4944 231.746 27.4944Z" fill="white"/>
<path d="M74.8168 46.6158C74.8168 45.9561 74.9296 45.3548 75.1551 44.812C75.3805 44.2608 75.6937 43.789 76.0945 43.3965C76.4954 42.9957 76.9588 42.6867 77.485 42.4696C78.0194 42.2525 78.5956 42.1439 79.2136 42.1439C80.0904 42.1439 80.8712 42.3485 81.556 42.7577C82.2491 43.1669 82.7752 43.7556 83.1343 44.5239L82.1322 44.8872C81.9318 44.4947 81.6771 44.1773 81.3681 43.9352C81.0591 43.693 80.7209 43.5134 80.3535 43.3965C79.986 43.2796 79.6144 43.2212 79.2386 43.2212C78.6457 43.2212 78.1071 43.3589 77.6227 43.6345C77.1467 43.9101 76.771 44.3026 76.4954 44.812C76.2281 45.3214 76.0945 45.9227 76.0945 46.6158C76.0945 47.3006 76.2281 47.8976 76.4954 48.4071C76.771 48.9165 77.1467 49.3131 77.6227 49.5971C78.1071 49.8726 78.6457 50.0104 79.2386 50.0104C79.6228 50.0104 80.0027 49.9478 80.3785 49.8225C80.7543 49.6973 81.1051 49.4968 81.4307 49.2213C81.7564 48.9373 82.0237 48.5699 82.2324 48.1189L83.2345 48.4697C82.8587 49.3549 82.3201 50.0146 81.6186 50.4488C80.9172 50.8747 80.1155 51.0877 79.2136 51.0877C78.5956 51.0877 78.0194 50.9791 77.485 50.762C76.9588 50.5449 76.4954 50.2359 76.0945 49.8351C75.6937 49.4342 75.3805 48.9624 75.1551 48.4196C74.9296 47.8684 74.8168 47.2672 74.8168 46.6158ZM84.7837 41.9811H85.9612V51H84.7837V41.9811ZM90.4744 51.0877C89.8732 51.0877 89.3387 50.9499 88.8711 50.6743C88.4118 50.3904 88.0485 50.0021 87.7813 49.5094C87.5224 49.0167 87.393 48.453 87.393 47.8183C87.393 47.2087 87.5224 46.6659 87.7813 46.1899C88.0402 45.7139 88.3951 45.3381 88.846 45.0625C89.3053 44.7869 89.8231 44.6492 90.3993 44.6492C90.9839 44.6492 91.5016 44.7786 91.9526 45.0375C92.4035 45.288 92.7542 45.6429 93.0048 46.1022C93.2553 46.5532 93.3764 47.0751 93.368 47.668C93.368 47.7682 93.3639 47.8726 93.3555 47.9812C93.3472 48.0814 93.3346 48.1941 93.3179 48.3194H88.6832C88.7082 48.6534 88.8001 48.9499 88.9588 49.2087C89.1258 49.4593 89.3346 49.6555 89.5851 49.7975C89.844 49.9394 90.1362 50.0104 90.4619 50.0104C90.8795 50.0104 91.2427 49.9311 91.5517 49.7724C91.8607 49.6054 92.0778 49.3841 92.2031 49.1085L93.2302 49.4718C92.9797 49.9812 92.6123 50.3779 92.1279 50.6618C91.6519 50.9457 91.1008 51.0877 90.4744 51.0877ZM92.0778 47.3047C92.0778 47.0041 92.0027 46.7327 91.8523 46.4905C91.702 46.2484 91.4974 46.0605 91.2386 45.9268C90.988 45.7849 90.7041 45.7139 90.3868 45.7139C90.1028 45.7139 89.8398 45.7849 89.5976 45.9268C89.3638 46.0605 89.1634 46.2484 88.9963 46.4905C88.8377 46.7244 88.7375 46.9958 88.6957 47.3047H92.0778ZM98.6351 51L98.5348 50.0856C98.3428 50.4029 98.0922 50.6493 97.7833 50.8246C97.4826 50.9916 97.0901 51.0752 96.6058 51.0752C96.1548 51.0752 95.7707 51.0042 95.4534 50.8622C95.136 50.7119 94.8897 50.5073 94.7143 50.2484C94.5473 49.9812 94.4638 49.6722 94.4638 49.3215C94.4638 48.7954 94.66 48.3611 95.0525 48.0187C95.445 47.668 96.0129 47.4509 96.7561 47.3674L98.5348 47.1669V46.6784C98.5348 46.4112 98.4263 46.1857 98.2092 46.002C97.992 45.8099 97.6789 45.7139 97.2697 45.7139C96.8855 45.7139 96.5599 45.8058 96.2926 45.9895C96.0254 46.1648 95.8459 46.4279 95.754 46.7786L94.7018 46.4028C94.8605 45.8517 95.1694 45.4216 95.6287 45.1126C96.0964 44.8036 96.6601 44.6492 97.3198 44.6492C98.1048 44.6492 98.7019 44.8454 99.1111 45.2379C99.5202 45.6304 99.7248 46.1481 99.7248 46.7912V51H98.6351ZM98.5348 48.1315L96.8187 48.3444C96.4513 48.3945 96.1757 48.4989 95.992 48.6576C95.8083 48.8079 95.7164 49.0083 95.7164 49.2588C95.7164 49.4927 95.8041 49.6889 95.9795 49.8476C96.1632 49.9979 96.4179 50.0731 96.7436 50.0731C97.1444 50.0731 97.4785 49.9979 97.7457 49.8476C98.0129 49.6973 98.2092 49.4885 98.3344 49.2213C98.468 48.9457 98.5348 48.6284 98.5348 48.2693V48.1315ZM101.42 44.7368H102.497L102.573 45.4634C102.773 45.2045 103.028 45.0041 103.337 44.8621C103.646 44.7201 103.988 44.6492 104.364 44.6492C104.848 44.6492 105.266 44.7535 105.617 44.9623C105.976 45.1627 106.251 45.4634 106.443 45.8642C106.644 46.2651 106.744 46.7661 106.744 47.3674V51H105.566V47.5177C105.566 46.9331 105.441 46.4905 105.191 46.1899C104.948 45.8809 104.594 45.7264 104.126 45.7264C103.642 45.7264 103.266 45.8851 102.999 46.2024C102.731 46.5114 102.598 46.9707 102.598 47.5803V51H101.42V44.7368ZM108.893 49.3716H110.258L108.805 52.7787H107.991L108.893 49.3716ZM115.014 46.6158C115.014 45.9561 115.126 45.3548 115.352 44.812C115.577 44.2608 115.89 43.789 116.291 43.3965C116.692 42.9957 117.156 42.6867 117.682 42.4696C118.216 42.2525 118.792 42.1439 119.41 42.1439C120.287 42.1439 121.068 42.3485 121.753 42.7577C122.446 43.1669 122.972 43.7556 123.331 44.5239L122.329 44.8872C122.129 44.4947 121.874 44.1773 121.565 43.9352C121.256 43.693 120.918 43.5134 120.55 43.3965C120.183 43.2796 119.811 43.2212 119.435 43.2212C118.842 43.2212 118.304 43.3589 117.819 43.6345C117.343 43.9101 116.968 44.3026 116.692 44.812C116.425 45.3214 116.291 45.9227 116.291 46.6158C116.291 47.3006 116.425 47.8976 116.692 48.4071C116.968 48.9165 117.343 49.3131 117.819 49.5971C118.304 49.8726 118.842 50.0104 119.435 50.0104C119.82 50.0104 120.199 49.9478 120.575 49.8225C120.951 49.6973 121.302 49.4968 121.627 49.2213C121.953 48.9373 122.22 48.5699 122.429 48.1189L123.431 48.4697C123.055 49.3549 122.517 50.0146 121.815 50.4488C121.114 50.8747 120.312 51.0877 119.41 51.0877C118.792 51.0877 118.216 50.9791 117.682 50.762C117.156 50.5449 116.692 50.2359 116.291 49.8351C115.89 49.4342 115.577 48.9624 115.352 48.4196C115.126 47.8684 115.014 47.2672 115.014 46.6158ZM127.724 51.0877C127.131 51.0877 126.596 50.9582 126.12 50.6994C125.653 50.4321 125.285 50.0605 125.018 49.5845C124.751 49.1002 124.617 48.5323 124.617 47.8809C124.617 47.2212 124.755 46.6492 125.031 46.1648C125.306 45.6805 125.682 45.3089 126.158 45.05C126.634 44.7828 127.168 44.6492 127.761 44.6492C128.354 44.6492 128.889 44.7828 129.365 45.05C129.849 45.3089 130.229 45.6805 130.505 46.1648C130.78 46.6408 130.918 47.2045 130.918 47.8559C130.918 48.5156 130.776 49.0876 130.492 49.572C130.216 50.0564 129.836 50.4321 129.352 50.6994C128.868 50.9582 128.325 51.0877 127.724 51.0877ZM127.711 50.0104C128.045 50.0104 128.358 49.9353 128.651 49.7849C128.943 49.6263 129.181 49.3883 129.365 49.0709C129.557 48.7536 129.653 48.3486 129.653 47.8559C129.653 47.3715 129.561 46.9749 129.377 46.6659C129.202 46.3486 128.968 46.1147 128.676 45.9644C128.383 45.8058 128.07 45.7264 127.736 45.7264C127.411 45.7264 127.106 45.8058 126.822 45.9644C126.546 46.1147 126.321 46.3486 126.145 46.6659C125.97 46.9832 125.882 47.3882 125.882 47.8809C125.882 48.3653 125.966 48.7661 126.133 49.0835C126.308 49.3925 126.534 49.6263 126.809 49.7849C127.085 49.9353 127.385 50.0104 127.711 50.0104ZM132.357 44.7368H133.434L133.509 45.4634C133.71 45.2128 133.96 45.0166 134.261 44.8746C134.561 44.7243 134.9 44.6492 135.275 44.6492C135.701 44.6492 136.085 44.7452 136.428 44.9373C136.779 45.121 137.054 45.3966 137.255 45.764C137.463 45.3966 137.76 45.121 138.144 44.9373C138.528 44.7452 138.95 44.6492 139.409 44.6492C139.885 44.6492 140.303 44.7535 140.662 44.9623C141.029 45.1627 141.313 45.4634 141.514 45.8642C141.714 46.2651 141.814 46.7661 141.814 47.3674V51H140.624V47.5177C140.624 46.9331 140.499 46.4905 140.248 46.1899C139.998 45.8809 139.639 45.7264 139.171 45.7264C138.695 45.7264 138.319 45.8851 138.044 46.2024C137.768 46.5198 137.63 46.9832 137.63 47.5928V51H136.44V47.5177C136.44 46.9331 136.323 46.4905 136.09 46.1899C135.856 45.8809 135.505 45.7264 135.037 45.7264C134.561 45.7264 134.19 45.8851 133.923 46.2024C133.664 46.5198 133.534 46.9832 133.534 47.5928V51H132.357V44.7368ZM144.553 49.9353L144.678 49.8977V53.5053H143.501V44.7368H144.578L144.666 45.6763C144.866 45.3924 145.142 45.1502 145.492 44.9498C145.852 44.7494 146.286 44.6492 146.795 44.6492C147.346 44.6492 147.835 44.7828 148.261 45.05C148.687 45.3172 149.021 45.693 149.263 46.1774C149.513 46.6534 149.639 47.2171 149.639 47.8684C149.639 48.5114 149.518 49.0751 149.275 49.5595C149.042 50.0438 148.712 50.4196 148.286 50.6868C147.86 50.9541 147.363 51.0877 146.795 51.0877C146.252 51.0877 145.789 50.9791 145.405 50.762C145.029 50.5365 144.745 50.2609 144.553 49.9353ZM148.361 47.8684C148.361 47.2254 148.19 46.7076 147.847 46.3152C147.513 45.9227 147.075 45.7264 146.532 45.7264C146.181 45.7264 145.868 45.8099 145.593 45.9769C145.317 46.144 145.096 46.3861 144.929 46.7035C144.762 47.0208 144.678 47.4091 144.678 47.8684C144.678 48.3194 144.762 48.7035 144.929 49.0208C145.096 49.3382 145.317 49.5845 145.593 49.7599C145.868 49.9269 146.181 50.0104 146.532 50.0104C147.075 50.0104 147.513 49.8142 147.847 49.4217C148.19 49.0292 148.361 48.5114 148.361 47.8684ZM151.061 41.9811H152.238V51H151.061V41.9811ZM154.221 44.7368H155.411V51H154.221V44.7368ZM154.822 43.6345C154.597 43.6345 154.409 43.5594 154.259 43.4091C154.108 43.2587 154.033 43.075 154.033 42.8579C154.033 42.6324 154.108 42.4445 154.259 42.2942C154.409 42.1355 154.597 42.0562 154.822 42.0562C155.039 42.0562 155.223 42.1355 155.373 42.2942C155.532 42.4445 155.611 42.6324 155.611 42.8579C155.611 43.075 155.532 43.2587 155.373 43.4091C155.223 43.5594 155.039 43.6345 154.822 43.6345ZM161.205 51L161.105 50.0856C160.913 50.4029 160.663 50.6493 160.354 50.8246C160.053 50.9916 159.661 51.0752 159.176 51.0752C158.725 51.0752 158.341 51.0042 158.024 50.8622C157.706 50.7119 157.46 50.5073 157.285 50.2484C157.118 49.9812 157.034 49.6722 157.034 49.3215C157.034 48.7954 157.23 48.3611 157.623 48.0187C158.015 47.668 158.583 47.4509 159.327 47.3674L161.105 47.1669V46.6784C161.105 46.4112 160.997 46.1857 160.78 46.002C160.562 45.8099 160.249 45.7139 159.84 45.7139C159.456 45.7139 159.13 45.8058 158.863 45.9895C158.596 46.1648 158.416 46.4279 158.324 46.7786L157.272 46.4028C157.431 45.8517 157.74 45.4216 158.199 45.1126C158.667 44.8036 159.23 44.6492 159.89 44.6492C160.675 44.6492 161.272 44.8454 161.681 45.2379C162.091 45.6304 162.295 46.1481 162.295 46.7912V51H161.205ZM161.105 48.1315L159.389 48.3444C159.022 48.3945 158.746 48.4989 158.562 48.6576C158.379 48.8079 158.287 49.0083 158.287 49.2588C158.287 49.4927 158.375 49.6889 158.55 49.8476C158.734 49.9979 158.988 50.0731 159.314 50.0731C159.715 50.0731 160.049 49.9979 160.316 49.8476C160.583 49.6973 160.78 49.4885 160.905 49.2213C161.038 48.9457 161.105 48.6284 161.105 48.2693V48.1315ZM163.991 44.7368H165.068L165.143 45.4634C165.343 45.2045 165.598 45.0041 165.907 44.8621C166.216 44.7201 166.559 44.6492 166.934 44.6492C167.419 44.6492 167.836 44.7535 168.187 44.9623C168.546 45.1627 168.822 45.4634 169.014 45.8642C169.214 46.2651 169.314 46.7661 169.314 47.3674V51H168.137V47.5177C168.137 46.9331 168.012 46.4905 167.761 46.1899C167.519 45.8809 167.164 45.7264 166.696 45.7264C166.212 45.7264 165.836 45.8851 165.569 46.2024C165.302 46.5114 165.168 46.9707 165.168 47.5803V51H163.991V44.7368ZM171.413 44.7368V42.9832H172.603V44.7368H174.169V45.7891H172.603V48.8705C172.603 49.2547 172.678 49.5261 172.829 49.6847C172.987 49.8434 173.183 49.9353 173.417 49.9603C173.659 49.977 173.91 49.9687 174.169 49.9353V50.9499C173.826 51.0251 173.488 51.0459 173.154 51.0125C172.829 50.9875 172.532 50.8956 172.265 50.7369C172.006 50.5783 171.797 50.3486 171.639 50.048C171.488 49.739 171.413 49.3465 171.413 48.8705V45.7891H170.511V44.7368H171.413ZM175.94 49.3716H177.306L175.853 52.7787H175.038L175.94 49.3716ZM182.061 46.6158C182.061 45.9561 182.174 45.3548 182.399 44.812C182.625 44.2608 182.938 43.789 183.339 43.3965C183.74 42.9957 184.203 42.6867 184.729 42.4696C185.264 42.2525 185.84 42.1439 186.458 42.1439C187.335 42.1439 188.116 42.3485 188.8 42.7577C189.493 43.1669 190.02 43.7556 190.379 44.5239L189.377 44.8872C189.176 44.4947 188.921 44.1773 188.612 43.9352C188.303 43.693 187.965 43.5134 187.598 43.3965C187.23 43.2796 186.859 43.2212 186.483 43.2212C185.89 43.2212 185.351 43.3589 184.867 43.6345C184.391 43.9101 184.015 44.3026 183.74 44.812C183.472 45.3214 183.339 45.9227 183.339 46.6158C183.339 47.3006 183.472 47.8976 183.74 48.4071C184.015 48.9165 184.391 49.3131 184.867 49.5971C185.351 49.8726 185.89 50.0104 186.483 50.0104C186.867 50.0104 187.247 49.9478 187.623 49.8225C187.999 49.6973 188.349 49.4968 188.675 49.2213C189.001 48.9373 189.268 48.5699 189.477 48.1189L190.479 48.4697C190.103 49.3549 189.564 50.0146 188.863 50.4488C188.162 50.8747 187.36 51.0877 186.458 51.0877C185.84 51.0877 185.264 50.9791 184.729 50.762C184.203 50.5449 183.74 50.2359 183.339 49.8351C182.938 49.4342 182.625 48.9624 182.399 48.4196C182.174 47.8684 182.061 47.2672 182.061 46.6158ZM194.771 51.0877C194.178 51.0877 193.644 50.9582 193.168 50.6994C192.7 50.4321 192.333 50.0605 192.066 49.5845C191.798 49.1002 191.665 48.5323 191.665 47.8809C191.665 47.2212 191.803 46.6492 192.078 46.1648C192.354 45.6805 192.73 45.3089 193.206 45.05C193.682 44.7828 194.216 44.6492 194.809 44.6492C195.402 44.6492 195.936 44.7828 196.412 45.05C196.897 45.3089 197.277 45.6805 197.552 46.1648C197.828 46.6408 197.966 47.2045 197.966 47.8559C197.966 48.5156 197.824 49.0876 197.54 49.572C197.264 50.0564 196.884 50.4321 196.4 50.6994C195.915 50.9582 195.373 51.0877 194.771 51.0877ZM194.759 50.0104C195.093 50.0104 195.406 49.9353 195.698 49.7849C195.991 49.6263 196.229 49.3883 196.412 49.0709C196.604 48.7536 196.7 48.3486 196.7 47.8559C196.7 47.3715 196.608 46.9749 196.425 46.6659C196.249 46.3486 196.016 46.1147 195.723 45.9644C195.431 45.8058 195.118 45.7264 194.784 45.7264C194.458 45.7264 194.153 45.8058 193.869 45.9644C193.594 46.1147 193.368 46.3486 193.193 46.6659C193.018 46.9832 192.93 47.3882 192.93 47.8809C192.93 48.3653 193.013 48.7661 193.18 49.0835C193.356 49.3925 193.581 49.6263 193.857 49.7849C194.132 49.9353 194.433 50.0104 194.759 50.0104ZM199.404 44.7368H200.482L200.557 45.4634C200.757 45.2045 201.012 45.0041 201.321 44.8621C201.63 44.7201 201.972 44.6492 202.348 44.6492C202.832 44.6492 203.25 44.7535 203.601 44.9623C203.96 45.1627 204.235 45.4634 204.427 45.8642C204.628 46.2651 204.728 46.7661 204.728 47.3674V51H203.551V47.5177C203.551 46.9331 203.425 46.4905 203.175 46.1899C202.933 45.8809 202.578 45.7264 202.11 45.7264C201.626 45.7264 201.25 45.8851 200.983 46.2024C200.715 46.5114 200.582 46.9707 200.582 47.5803V51H199.404V44.7368ZM210.748 43.6471C210.53 43.6471 210.343 43.5719 210.184 43.4216C210.034 43.2713 209.958 43.0875 209.958 42.8704C209.958 42.6366 210.034 42.4445 210.184 42.2942C210.343 42.1355 210.53 42.0562 210.748 42.0562C210.973 42.0562 211.165 42.1355 211.324 42.2942C211.482 42.4445 211.562 42.6366 211.562 42.8704C211.562 43.0875 211.482 43.2713 211.324 43.4216C211.165 43.5719 210.973 43.6471 210.748 43.6471ZM211.336 44.7243V51H210.146V45.7765H205.925V44.7243H211.336ZM206.727 44.0354C206.727 43.5594 206.806 43.1585 206.965 42.8328C207.132 42.5072 207.386 42.2733 207.729 42.1314C208.071 41.9811 208.522 41.9309 209.082 41.9811V43.0207C208.647 42.979 208.342 43.0458 208.167 43.2212C208 43.3965 207.917 43.6679 207.917 44.0354V51H206.727V44.0354ZM218.072 45.8016L217.934 45.8392V41.9811H219.124V51H218.047L217.959 50.0605C217.751 50.3445 217.467 50.5866 217.108 50.7871C216.757 50.9875 216.327 51.0877 215.817 51.0877C215.25 51.0877 214.753 50.9541 214.327 50.6868C213.909 50.4196 213.579 50.0438 213.337 49.5595C213.103 49.0751 212.986 48.5114 212.986 47.8684C212.986 47.2254 213.103 46.6617 213.337 46.1774C213.579 45.693 213.909 45.3172 214.327 45.05C214.753 44.7828 215.25 44.6492 215.817 44.6492C216.36 44.6492 216.819 44.7619 217.195 44.9874C217.579 45.2045 217.872 45.4759 218.072 45.8016ZM214.252 47.8684C214.252 48.5114 214.419 49.0292 214.753 49.4217C215.087 49.8142 215.533 50.0104 216.093 50.0104C216.435 50.0104 216.744 49.9269 217.02 49.7599C217.295 49.5929 217.517 49.3507 217.684 49.0334C217.851 48.7077 217.934 48.3194 217.934 47.8684C217.934 47.4175 217.851 47.0333 217.684 46.716C217.517 46.3987 217.295 46.1565 217.02 45.9895C216.744 45.8141 216.435 45.7264 216.093 45.7264C215.542 45.7264 215.095 45.9227 214.753 46.3152C214.419 46.7076 214.252 47.2254 214.252 47.8684ZM223.628 51.0877C223.026 51.0877 222.492 50.9499 222.024 50.6743C221.565 50.3904 221.202 50.0021 220.935 49.5094C220.676 49.0167 220.546 48.453 220.546 47.8183C220.546 47.2087 220.676 46.6659 220.935 46.1899C221.193 45.7139 221.548 45.3381 221.999 45.0625C222.459 44.7869 222.976 44.6492 223.553 44.6492C224.137 44.6492 224.655 44.7786 225.106 45.0375C225.557 45.288 225.908 45.6429 226.158 46.1022C226.409 46.5532 226.53 47.0751 226.521 47.668C226.521 47.7682 226.517 47.8726 226.509 47.9812C226.5 48.0814 226.488 48.1941 226.471 48.3194H221.836C221.862 48.6534 221.953 48.9499 222.112 49.2087C222.279 49.4593 222.488 49.6555 222.738 49.7975C222.997 49.9394 223.29 50.0104 223.615 50.0104C224.033 50.0104 224.396 49.9311 224.705 49.7724C225.014 49.6054 225.231 49.3841 225.356 49.1085L226.384 49.4718C226.133 49.9812 225.766 50.3779 225.281 50.6618C224.805 50.9457 224.254 51.0877 223.628 51.0877ZM225.231 47.3047C225.231 47.0041 225.156 46.7327 225.006 46.4905C224.855 46.2484 224.651 46.0605 224.392 45.9268C224.141 45.7849 223.857 45.7139 223.54 45.7139C223.256 45.7139 222.993 45.7849 222.751 45.9268C222.517 46.0605 222.317 46.2484 222.15 46.4905C221.991 46.7244 221.891 46.9958 221.849 47.3047H225.231ZM227.968 44.7368H229.045L229.12 45.4634C229.321 45.2045 229.575 45.0041 229.884 44.8621C230.193 44.7201 230.536 44.6492 230.911 44.6492C231.396 44.6492 231.813 44.7535 232.164 44.9623C232.523 45.1627 232.799 45.4634 232.991 45.8642C233.191 46.2651 233.291 46.7661 233.291 47.3674V51H232.114V47.5177C232.114 46.9331 231.989 46.4905 231.738 46.1899C231.496 45.8809 231.141 45.7264 230.673 45.7264C230.189 45.7264 229.813 45.8851 229.546 46.2024C229.279 46.5114 229.145 46.9707 229.145 47.5803V51H227.968V44.7368ZM235.39 44.7368V42.9832H236.58V44.7368H238.146V45.7891H236.58V48.8705C236.58 49.2547 236.655 49.5261 236.806 49.6847C236.964 49.8434 237.161 49.9353 237.394 49.9603C237.637 49.977 237.887 49.9687 238.146 49.9353V50.9499C237.804 51.0251 237.465 51.0459 237.131 51.0125C236.806 50.9875 236.509 50.8956 236.242 50.7369C235.983 50.5783 235.774 50.3486 235.616 50.048C235.465 49.739 235.39 49.3465 235.39 48.8705V45.7891H234.488V44.7368H235.39Z" fill="white"/>
</svg>
