<svg width="223" height="223" viewBox="0 0 223 223" fill="none" xmlns="http://www.w3.org/2000/svg">
<path d="M222.722 111.108C222.722 113.663 222.637 116.196 222.465 118.708C222.372 118.637 222.287 118.573 222.23 118.53C203.665 105.148 186.065 90.3177 167.764 76.572C149.379 62.7621 134.761 48.4169 113.056 67.4153C99.995 78.8558 88.4253 92.1947 75.5923 103.899C67.9482 111.75 76.3632 123.64 86.3412 118.88C87.7045 118.23 89.4246 116.667 90.588 115.639C98.0608 109.038 105.27 100.909 112.564 93.9647C116.311 90.3962 126.682 79.648 130.907 78.4276C136.631 76.7718 142.391 81.0611 146.909 84.0729L219.046 139.548C206.485 187.137 163.147 222.222 111.608 222.222C50.5901 222.222 1.05672 173.042 0.5 112.15C16.5662 125.06 32.2613 138.478 48.4061 151.296C67.677 166.597 85.2135 178.473 106.89 157.669C117.553 145.158 130.265 133.76 140.921 121.335C144.775 116.846 146.88 110.786 141.556 106.354C134.754 100.688 129.108 106.254 124.455 111.065C113.006 122.912 102.486 135.887 90.0313 146.678C81.8946 151.938 76.0206 148.691 69.1187 143.616L2.53415 89.7967C12.4765 38.6321 57.5276 0 111.608 0C171.947 0 221.052 48.0886 222.679 108.032C222.708 109.052 222.722 110.08 222.722 111.108Z" fill="#007C91"/>
</svg>
