<svg width="143" height="32" viewBox="0 0 143 32" fill="none" xmlns="http://www.w3.org/2000/svg">
<path d="M32 15.9995C32 16.3674 31.9877 16.7322 31.963 17.094C31.9496 17.0837 31.9373 17.0745 31.9291 17.0683C29.2558 15.1413 26.7213 13.0057 24.0861 11.0264C21.4385 9.03774 19.3336 6.97203 16.2081 9.70781C14.3273 11.3552 12.6613 13.276 10.8133 14.9615C9.71254 16.092 10.9243 17.8042 12.3611 17.1187C12.5574 17.0251 12.8051 16.8001 12.9727 16.6521C14.0488 15.7014 15.0868 14.5309 16.1372 13.5309C16.6768 13.0171 18.1702 11.4693 18.7786 11.2936C19.6029 11.0551 20.4323 11.6728 21.0829 12.1065L31.4707 20.0949C29.6618 26.9477 23.4211 32 15.9995 32C7.21298 32 0.080167 24.918 0 16.1495C2.31354 18.0087 4.57363 19.9408 6.89847 21.7866C9.67349 23.99 12.1987 25.7001 15.3201 22.7043C16.8556 20.9027 18.6861 19.2615 20.2206 17.4722C20.7756 16.8258 21.0788 15.9532 20.3121 15.315C19.3326 14.499 18.5196 15.3006 17.8495 15.9933C16.2009 17.6993 14.686 19.5677 12.8925 21.1216C11.7208 21.8791 10.875 21.4114 9.8811 20.6807L0.292918 12.9307C1.72462 5.56303 8.21198 0 15.9995 0C24.6884 0 31.7595 6.92475 31.9938 15.5565C31.9979 15.7035 32 15.8515 32 15.9995Z" fill="#ffffff"/>
<path d="M46.0656 8.85263V20.7162H52.3713V23H43.3371V8.85263H46.0656ZM54.4147 12.8947H57.0017V23H54.4147V12.8947ZM55.7284 11.6013C55.2434 11.6013 54.8459 11.4531 54.536 11.1566C54.2261 10.8467 54.0711 10.4695 54.0711 10.0248C54.0711 9.58021 54.2261 9.20968 54.536 8.91326C54.8459 8.60337 55.2434 8.44842 55.7284 8.44842C56.1865 8.44842 56.5705 8.60337 56.8804 8.91326C57.2038 9.20968 57.3655 9.58021 57.3655 10.0248C57.3655 10.4695 57.2038 10.8467 56.8804 11.1566C56.5705 11.4531 56.1865 11.6013 55.7284 11.6013ZM60.3194 11.9853C60.3194 11.1095 60.4743 10.3954 60.7842 9.84295C61.1076 9.29053 61.5791 8.89305 62.1989 8.65053C62.8322 8.408 63.6204 8.34063 64.5636 8.44842V10.7322C63.9707 10.6514 63.5463 10.7322 63.2903 10.9747C63.0478 11.2173 62.9265 11.5945 62.9265 12.1065V12.8947H64.6848V15.1785H62.9265V23H60.3194V15.1785H59.1269V12.8947H60.3194V11.9853ZM70.8958 23.1415C69.8852 23.1415 68.996 22.9192 68.228 22.4745C67.46 22.0299 66.8604 21.4101 66.4292 20.6152C66.0116 19.8202 65.8027 18.904 65.8027 17.8665C65.8027 16.8695 66.0116 15.9869 66.4292 15.2189C66.8469 14.4509 67.4263 13.8514 68.1674 13.4202C68.9219 12.9756 69.7775 12.7533 70.7341 12.7533C71.7042 12.7533 72.5598 12.9621 73.3008 13.3798C74.0419 13.7975 74.6145 14.3836 75.0187 15.1381C75.4364 15.8792 75.6452 16.7482 75.6452 17.7453C75.6452 17.8935 75.6318 18.0619 75.6048 18.2505C75.5914 18.4257 75.5711 18.6143 75.5442 18.8164H68.5918C68.6457 19.2476 68.7804 19.6181 68.996 19.928C69.225 20.2244 69.5012 20.4602 69.8246 20.6354C70.1615 20.7971 70.5387 20.8779 70.9564 20.8779C71.4549 20.8779 71.8996 20.7768 72.2903 20.5747C72.6945 20.3592 72.9842 20.0829 73.1594 19.7461L75.4634 20.4333C75.0591 21.2956 74.4528 21.9625 73.6444 22.4341C72.8495 22.9057 71.9332 23.1415 70.8958 23.1415ZM72.8158 16.9368C72.8023 16.5596 72.7012 16.2227 72.5126 15.9263C72.324 15.6164 72.0747 15.3806 71.7648 15.2189C71.4549 15.0438 71.1114 14.9562 70.7341 14.9562C70.3972 14.9562 70.0806 15.0438 69.7842 15.2189C69.4878 15.3941 69.2318 15.6299 69.0162 15.9263C68.8141 16.2093 68.6794 16.5461 68.612 16.9368H72.8158Z" fill="#ffffff"/>
<path d="M77.65 8.85263H89.1296V11.1364H84.7641V23H82.0357V11.1364H77.65V8.85263ZM91.0448 8.44842H93.6318V13.8851C93.9417 13.5482 94.3257 13.2787 94.7838 13.0766C95.2554 12.8611 95.7808 12.7533 96.3602 12.7533C97.1282 12.7533 97.7951 12.9217 98.361 13.2585C98.9404 13.5954 99.385 14.0872 99.6949 14.7339C100.005 15.3672 100.16 16.1554 100.16 17.0985V23H97.4314V17.4421C97.4314 16.6606 97.2764 16.0745 96.9665 15.6838C96.6566 15.2931 96.1918 15.0977 95.572 15.0977C94.9387 15.0977 94.4537 15.3133 94.1168 15.7444C93.7935 16.1621 93.6318 16.7617 93.6318 17.5432V23H91.0448V8.44842ZM102.512 12.8947H104.856L105.038 14.1882C105.321 13.8379 105.638 13.5549 105.988 13.3394C106.352 13.1103 106.749 12.9554 107.181 12.8745C107.612 12.7802 108.063 12.7869 108.535 12.8947V15.32C108.171 15.1987 107.787 15.1651 107.383 15.2189C106.992 15.2728 106.621 15.4143 106.271 15.6434C105.934 15.8724 105.651 16.2025 105.422 16.6337C105.207 17.0514 105.099 17.5836 105.099 18.2303V23H102.512V12.8947ZM114.58 23.1415C113.569 23.1415 112.68 22.9192 111.912 22.4745C111.144 22.0299 110.545 21.4101 110.113 20.6152C109.696 19.8202 109.487 18.904 109.487 17.8665C109.487 16.8695 109.696 15.9869 110.113 15.2189C110.531 14.4509 111.111 13.8514 111.852 13.4202C112.606 12.9756 113.462 12.7533 114.418 12.7533C115.388 12.7533 116.244 12.9621 116.985 13.3798C117.726 13.7975 118.299 14.3836 118.703 15.1381C119.121 15.8792 119.329 16.7482 119.329 17.7453C119.329 17.8935 119.316 18.0619 119.289 18.2505C119.276 18.4257 119.255 18.6143 119.228 18.8164H112.276C112.33 19.2476 112.465 19.6181 112.68 19.928C112.909 20.2244 113.185 20.4602 113.509 20.6354C113.846 20.7971 114.223 20.8779 114.641 20.8779C115.139 20.8779 115.584 20.7768 115.975 20.5747C116.379 20.3592 116.668 20.0829 116.844 19.7461L119.148 20.4333C118.743 21.2956 118.137 21.9625 117.329 22.4341C116.534 22.9057 115.617 23.1415 114.58 23.1415ZM116.5 16.9368C116.487 16.5596 116.385 16.2227 116.197 15.9263C116.008 15.6164 115.759 15.3806 115.449 15.2189C115.139 15.0438 114.796 14.9562 114.418 14.9562C114.081 14.9562 113.765 15.0438 113.468 15.2189C113.172 15.3941 112.916 15.6299 112.7 15.9263C112.498 16.2093 112.364 16.5461 112.296 16.9368H116.5ZM127.243 23L127.041 21.7672C126.704 22.1848 126.32 22.5149 125.889 22.7575C125.472 23 124.906 23.1213 124.192 23.1213C123.518 23.1213 122.925 23.0067 122.413 22.7777C121.914 22.5352 121.524 22.2051 121.241 21.7874C120.958 21.3562 120.816 20.8509 120.816 20.2716C120.816 19.4227 121.12 18.7221 121.726 18.1697C122.346 17.6038 123.275 17.2467 124.515 17.0985L127.041 16.8156V16.1082C127.041 15.8253 126.913 15.5625 126.657 15.32C126.401 15.0775 125.997 14.9562 125.445 14.9562C124.96 14.9562 124.535 15.0775 124.171 15.32C123.821 15.5491 123.585 15.8994 123.464 16.3709L121.241 15.5625C121.51 14.6598 122.022 13.9659 122.777 13.4808C123.531 12.9958 124.461 12.7533 125.566 12.7533C126.913 12.7533 127.924 13.0901 128.597 13.7638C129.285 14.424 129.628 15.2998 129.628 16.3912V23H127.243ZM127.041 18.6143L124.858 18.8973C124.414 18.9512 124.077 19.0859 123.848 19.3015C123.619 19.5036 123.504 19.7528 123.504 20.0493C123.504 20.3322 123.619 20.5747 123.848 20.7768C124.077 20.9655 124.4 21.0598 124.818 21.0598C125.29 21.0598 125.687 20.9722 126.01 20.7971C126.347 20.6219 126.603 20.3659 126.778 20.0291C126.954 19.6922 127.041 19.2745 127.041 18.776V18.6143ZM139.335 14.4105L139.012 14.4509V8.44842H141.599V23H139.254L139.093 21.7469C138.769 22.1242 138.338 22.4543 137.799 22.7373C137.274 23.0067 136.661 23.1415 135.96 23.1415C135.084 23.1415 134.31 22.9259 133.636 22.4947C132.962 22.0636 132.437 21.464 132.059 20.696C131.682 19.9145 131.494 18.9983 131.494 17.9474C131.494 16.8964 131.682 15.9802 132.059 15.1987C132.437 14.4173 132.962 13.8177 133.636 13.4C134.31 12.9688 135.084 12.7533 135.96 12.7533C136.755 12.7533 137.435 12.9149 138.001 13.2383C138.581 13.5617 139.025 13.9524 139.335 14.4105ZM134.283 17.9474C134.283 18.7962 134.498 19.4834 134.929 20.0088C135.36 20.5208 135.926 20.7768 136.627 20.7768C137.058 20.7768 137.449 20.6691 137.799 20.4535C138.163 20.2244 138.453 19.9011 138.668 19.4834C138.897 19.0657 139.012 18.5537 139.012 17.9474C139.012 17.3411 138.897 16.8291 138.668 16.4114C138.453 15.9937 138.163 15.6771 137.799 15.4615C137.449 15.2324 137.058 15.1179 136.627 15.1179C135.926 15.1179 135.36 15.3806 134.929 15.9061C134.498 16.4181 134.283 17.0985 134.283 17.9474Z" fill="#ffffff"/>
</svg>
